<svg width="268" height="97" viewBox="0 0 268 97" fill="none" xmlns="http://www.w3.org/2000/svg">
<path d="M1.91483 53.5377L21.8073 33.3658C22.4299 32.7334 23.4883 33.1761 23.4883 34.0614V75.2904C23.4883 75.5433 23.395 75.7963 23.2082 75.986L3.31571 96.4424C2.6931 97.0747 1.63465 96.6321 1.63465 95.7468V54.2332C1.60352 53.9803 1.72805 53.7274 1.91483 53.5377Z" fill="#A010A3"/>
<path d="M54.8763 0.98014V32.882C54.8763 33.135 54.7829 33.3879 54.5961 33.5776L34.7347 54.034C34.1121 54.6664 33.0537 54.2238 33.0537 53.3385V23.2071C33.0537 22.6696 32.6178 22.1954 32.0575 22.1954H2.39001C1.51836 22.1954 1.08252 21.1204 1.70514 20.488L21.8467 0.284554C22.0334 0.0948501 22.2825 0 22.5315 0H53.9112C54.4404 0 54.8763 0.442645 54.8763 0.98014Z" fill="#FE07C8"/>
<path d="M244.707 11.64H244.073C231.294 11.64 220.917 22.152 220.781 35.1645V35.4887C220.781 41.8329 223.182 47.6677 227.125 52.067C231.067 56.4663 236.505 59.3837 242.578 59.8931C242.986 59.9394 243.348 59.9394 243.756 59.9394C243.937 59.9394 244.164 59.9394 244.39 59.9394H244.617C244.662 59.9394 244.753 59.9394 244.798 59.9394L245.84 59.8931C245.931 59.8931 246.067 59.8931 246.158 59.8468L248.469 59.5689C248.514 59.5689 248.605 59.5689 248.65 59.5226C248.695 59.5226 248.786 59.4763 248.831 59.4763C248.967 59.43 249.103 59.43 249.194 59.3837C249.466 59.3374 249.692 59.2911 249.919 59.1985C250.145 59.1521 250.417 59.0595 250.644 59.0132C250.734 58.9669 250.87 58.9669 250.961 58.9206L251.369 58.7817C251.595 58.6891 251.822 58.6428 252.049 58.5501C252.049 58.5501 252.094 58.5501 252.139 58.5038C252.321 58.4112 252.547 58.3649 252.728 58.2723H252.774C253 58.1797 253.227 58.0871 253.453 57.9944C253.453 57.9944 253.453 57.9944 253.499 57.9944C253.725 57.9018 253.952 57.8092 254.133 57.7166C254.36 57.624 254.586 57.4851 254.813 57.3924C255.04 57.2998 255.402 57.0683 255.629 56.9757C255.674 56.9294 255.719 56.9294 255.765 56.883L256.127 56.6978V59.9394C256.127 63.2736 254.813 66.2836 252.683 68.4601C250.553 70.6366 247.562 71.609 244.345 71.9795C241.898 72.3036 239.496 71.0996 237.593 69.7104C235.191 67.997 231.928 68.3212 229.844 70.405C228.62 71.6553 228.031 73.2298 228.031 74.8506C228.031 76.7492 228.847 78.6016 230.524 79.8519C233.514 82.0747 238.046 84.1122 244.662 84.0659C257.623 83.9733 268 72.9983 268 59.8005V35.4887C268 22.3372 257.577 11.64 244.707 11.64ZM256.172 36.739C256.172 36.8316 256.172 36.9243 256.127 37.0632C256.127 37.2484 256.082 37.4799 256.036 37.6652C256.036 37.8504 255.991 38.0819 255.946 38.2672C255.901 38.4524 255.855 38.6377 255.81 38.8692C255.765 38.9618 255.765 39.0544 255.719 39.147C255.629 39.4249 255.538 39.7027 255.447 39.9806C255.402 40.1658 255.311 40.3511 255.266 40.5363C255.221 40.6289 255.175 40.7215 255.13 40.8141C255.039 40.9994 254.994 41.1846 254.904 41.3235C254.813 41.5087 254.722 41.6477 254.632 41.8329C254.314 42.3886 253.952 42.898 253.589 43.4074C253.544 43.5 253.499 43.5463 253.408 43.6389C253.227 43.8705 253.046 44.102 252.819 44.2872C252.774 44.3335 252.774 44.3799 252.728 44.3799L249.556 46.6953C249.284 46.8342 249.013 46.9268 248.741 47.0657C248.65 47.112 248.559 47.1583 248.469 47.1583C248.378 47.2047 248.287 47.251 248.197 47.251C248.016 47.2973 247.834 47.3899 247.653 47.4362C247.381 47.5288 247.064 47.5751 246.747 47.6677C246.565 47.714 246.384 47.7603 246.203 47.7603C246.112 47.7603 246.022 47.8067 245.931 47.8067C245.75 47.8067 245.614 47.853 245.433 47.853C245.342 47.853 245.251 47.853 245.161 47.853C244.889 47.853 244.662 47.853 244.436 47.853C244.028 47.853 243.62 47.853 243.212 47.8067C243.031 47.8067 242.85 47.7604 242.668 47.714H242.623C242.442 47.6677 242.26 47.6677 242.079 47.6214H242.034C241.898 47.5751 241.762 47.5751 241.626 47.5288C241.49 47.4825 241.354 47.4362 241.173 47.3899C241.082 47.3436 240.992 47.3436 240.901 47.2973C240.765 47.251 240.629 47.2047 240.493 47.1583C240.267 47.0657 240.04 46.9731 239.813 46.8805C239.677 46.8342 239.542 46.7416 239.406 46.6953C239.36 46.649 239.27 46.6489 239.224 46.6026C239.224 46.6026 239.179 46.6026 239.179 46.5563C239.134 46.5563 239.088 46.51 239.043 46.51C238.862 46.4174 238.726 46.3248 238.59 46.2322C238.409 46.1396 238.227 46.0469 238.046 45.908C237.955 45.8617 237.865 45.8154 237.819 45.7691C237.638 45.6765 237.502 45.5376 237.366 45.4449C237.14 45.2597 236.913 45.0745 236.687 44.8892C236.641 44.8429 236.551 44.7966 236.505 44.7503C236.369 44.6114 236.233 44.4725 236.097 44.3335C235.962 44.1946 235.826 44.0557 235.735 43.9168C235.644 43.8242 235.554 43.6852 235.463 43.5926C235.463 43.5926 235.463 43.5926 235.418 43.5463C235.372 43.5 235.327 43.4074 235.282 43.3611C235.236 43.2685 235.146 43.2221 235.101 43.1295C235.055 43.0369 235.01 42.9906 234.919 42.898C234.874 42.8054 234.829 42.7591 234.738 42.6665C234.693 42.6201 234.693 42.5738 234.647 42.5275C234.511 42.296 234.376 42.1108 234.24 41.8792C234.194 41.7866 234.149 41.7403 234.104 41.6477C234.013 41.4624 233.877 41.2309 233.786 41.0457C233.741 40.953 233.696 40.8604 233.65 40.7678C233.56 40.6289 233.514 40.49 233.469 40.3047C233.424 40.1195 233.333 39.9806 233.288 39.7954C233.243 39.6101 233.197 39.4712 233.107 39.286C233.107 39.2397 233.061 39.1933 233.061 39.1007C233.016 39.0081 233.016 38.8692 232.971 38.7303C232.971 38.6376 232.925 38.5913 232.925 38.4987C232.925 38.4524 232.925 38.4061 232.925 38.4061C232.88 38.2672 232.88 38.1283 232.835 37.9893C232.835 37.943 232.835 37.943 232.835 37.8967C232.835 37.8041 232.835 37.7578 232.789 37.6652C232.789 37.6189 232.789 37.5726 232.789 37.5263C232.789 37.48 232.789 37.4336 232.789 37.3873C232.744 37.1558 232.744 36.8779 232.699 36.6464C232.699 36.5538 232.699 36.4612 232.699 36.3686C232.699 36.2296 232.699 36.0907 232.699 35.9518C232.699 35.9055 232.699 35.8128 232.699 35.7202C232.699 34.0531 233.016 32.4787 233.605 30.9968C233.922 30.2559 234.285 29.6076 234.693 28.9593C234.783 28.8203 234.919 28.6351 235.01 28.4962C235.055 28.4036 235.101 28.3573 235.191 28.2646C235.372 28.0331 235.554 27.8015 235.735 27.6163C235.871 27.4774 236.007 27.3385 236.143 27.1995C236.324 27.0143 236.551 26.7828 236.777 26.5975C236.868 26.5512 236.913 26.4586 237.004 26.4123C237.23 26.2271 237.457 26.0418 237.684 25.8566C237.865 25.764 238.001 25.6251 238.137 25.5324C238.635 25.2083 239.134 24.9304 239.632 24.6989C239.813 24.6063 239.995 24.56 240.176 24.4674C241.535 23.9117 242.985 23.6338 244.526 23.6338L248.831 24.4674C249.012 24.56 249.194 24.6063 249.375 24.6989L250.87 25.5324C251.052 25.6251 251.188 25.764 251.324 25.8566C251.505 25.9955 251.731 26.1345 251.913 26.3197L252.456 26.7828C252.592 26.9217 252.728 27.0606 252.864 27.1995C253.091 27.4311 253.272 27.6163 253.453 27.8479C253.544 27.9405 253.635 28.0794 253.725 28.2183C253.997 28.5425 254.224 28.9129 254.45 29.2834C254.768 29.7465 255.04 30.2559 255.266 30.8116C255.311 30.9042 255.357 30.9968 255.357 31.0894C255.946 32.525 256.308 34.0995 256.308 35.8129C256.172 36.137 256.172 36.4149 256.172 36.739Z" fill="black"/>
<path d="M215.16 36.2134V54.6552C215.16 58.0511 212.52 60.7867 209.243 60.7867C205.966 60.7867 203.326 58.0511 203.326 54.6552V36.2134C203.326 29.4216 198.001 23.9032 191.447 23.9032C184.894 23.9032 179.569 29.4216 179.569 36.2134V54.6552C179.569 58.0511 176.929 60.7867 173.652 60.7867C170.375 60.7867 167.735 58.0511 167.735 54.6552V36.2134C167.735 22.6297 178.34 11.6402 191.447 11.6402C204.555 11.593 215.16 22.6297 215.16 36.2134Z" fill="black"/>
<path d="M162.076 19.1703V59.7831C162.076 73.9008 151.256 85.4561 138.037 85.3594C131.517 85.3111 127.217 83.3288 124.455 81.1531C121.422 78.784 121.15 74.0942 123.776 71.29C125.813 69.1143 128.937 68.7275 131.336 70.3714C133.283 71.7251 135.818 72.8855 138.444 72.7405C141.704 72.5954 144.646 71.3384 146.774 69.066C148.902 66.7936 150.215 63.6509 150.215 60.1698V56.7855C150.215 56.7855 150.17 56.7854 150.17 56.8338C150.079 56.8821 149.989 56.9305 149.898 57.0272C149.807 57.0755 149.717 57.1239 149.581 57.2206C149.355 57.3656 149.128 57.4623 148.902 57.559C148.676 57.6557 148.449 57.8008 148.223 57.8975C147.997 57.9942 147.815 58.0909 147.589 58.1876H147.544C147.317 58.2843 147.091 58.381 146.865 58.4777C146.865 58.4777 146.819 58.4776 146.819 58.526C146.638 58.6227 146.412 58.671 146.231 58.7677C146.186 58.7677 146.186 58.7677 146.14 58.8161C145.914 58.9128 145.688 58.9611 145.461 59.0578C145.461 59.0578 145.461 59.0578 145.416 59.0578C145.28 59.1062 145.19 59.1545 145.054 59.1545C144.963 59.2029 144.827 59.2029 144.737 59.2512C144.511 59.2996 144.239 59.3963 144.013 59.4446C143.786 59.493 143.515 59.5897 143.288 59.638C143.152 59.6864 143.062 59.6864 142.926 59.7347C142.79 59.7831 142.7 59.7831 142.564 59.8314C142.337 59.8798 142.156 59.9281 141.93 59.9281C141.839 59.9281 141.749 59.9764 141.658 59.9764C141.523 59.9764 141.387 60.0248 141.251 60.0248C141.115 60.0248 141.025 60.0731 140.889 60.0731C140.843 60.0731 140.843 60.0731 140.798 60.0731C140.436 60.1215 140.029 60.1698 139.621 60.1698H139.576C139.44 60.1698 139.35 60.1698 139.214 60.1698C139.123 60.1698 138.987 60.1698 138.852 60.1698C138.806 60.1698 138.716 60.1698 138.67 60.1698H138.444C138.218 60.1698 138.037 60.1698 137.81 60.1698C137.403 60.1698 136.995 60.1215 136.633 60.1215C124.5 59.1062 114.857 47.8893 114.857 34.6418V19.2187C114.857 15.7376 117.483 12.9333 120.743 12.9333C124.002 12.9333 126.628 15.7376 126.628 19.2187V34.9803C126.628 35.1253 126.628 35.222 126.628 35.3671C126.628 35.4638 126.628 35.5605 126.628 35.6572C126.628 35.7538 126.628 35.8505 126.628 35.9956C126.628 36.1406 126.673 36.2857 126.673 36.3824C126.673 36.4791 126.673 36.5274 126.719 36.6241C126.719 36.7208 126.719 36.7692 126.764 36.8659C126.764 36.9142 126.764 36.9626 126.809 37.0593C126.809 37.2043 126.854 37.3493 126.9 37.4944C126.9 37.5427 126.9 37.5427 126.9 37.5911C126.9 37.6878 126.945 37.7845 126.945 37.8812C126.945 37.9779 126.99 38.0746 127.035 38.1713C127.081 38.3163 127.081 38.4614 127.126 38.6064C127.126 38.6548 127.171 38.7515 127.171 38.7998C127.217 38.8965 127.217 38.9448 127.262 39.0415V39.0899C127.262 39.1382 127.307 39.1866 127.307 39.2349C127.352 39.3316 127.352 39.4283 127.398 39.525C127.443 39.6701 127.488 39.8151 127.579 40.0085C127.579 40.0085 127.579 40.0085 127.579 40.0569C127.579 40.1052 127.624 40.1052 127.624 40.1536C127.624 40.2019 127.624 40.2019 127.669 40.2019C127.669 40.2503 127.669 40.2503 127.715 40.2503C127.805 40.4437 127.896 40.637 127.941 40.7821C127.986 40.8788 128.031 40.9755 128.077 41.0722C128.122 41.1205 128.122 41.2172 128.167 41.2656C128.213 41.3623 128.258 41.459 128.348 41.604C128.394 41.7007 128.439 41.7974 128.484 41.8458C128.529 41.9424 128.62 42.0392 128.665 42.1842C128.665 42.2325 128.711 42.2325 128.711 42.2325C128.801 42.3776 128.937 42.571 129.027 42.716C129.073 42.8127 129.163 42.8611 129.209 42.9578C129.209 43.0061 129.254 43.0061 129.254 43.0545C129.299 43.1028 129.299 43.1512 129.344 43.1512C129.344 43.1512 129.344 43.1512 129.39 43.1995C129.48 43.2962 129.571 43.4413 129.661 43.538C129.797 43.683 129.888 43.8281 130.023 43.9731C130.159 44.1181 130.295 44.2632 130.431 44.4082C130.567 44.5049 130.657 44.65 130.793 44.7467L130.838 44.795C130.838 44.795 130.838 44.795 130.884 44.8434C131.019 44.9401 131.155 45.0851 131.291 45.1818C131.427 45.2785 131.608 45.4235 131.744 45.5202C131.88 45.6169 132.015 45.7136 132.196 45.8103C132.242 45.8587 132.287 45.8587 132.332 45.907C132.468 46.0037 132.604 46.1004 132.74 46.1488C132.876 46.1971 132.966 46.2938 133.102 46.3422C133.102 46.3422 133.147 46.3422 133.147 46.3905C133.192 46.4389 133.238 46.4389 133.328 46.4872C133.328 46.4872 133.328 46.4872 133.374 46.4872C133.509 46.5356 133.645 46.6323 133.781 46.6806C133.872 46.729 133.962 46.7773 134.053 46.7773C134.324 46.874 134.596 46.9707 134.868 47.0674C134.958 47.1157 135.049 47.1157 135.139 47.1641C135.275 47.2124 135.456 47.2608 135.592 47.3091C135.728 47.3575 135.864 47.3575 135.999 47.4058H136.045C136.226 47.4542 136.407 47.4542 136.588 47.5025C136.769 47.5509 136.995 47.5509 137.176 47.5992C137.584 47.6476 137.991 47.6476 138.399 47.6476C140.255 47.6476 141.975 47.2124 143.515 46.3905L146.729 43.9731C146.774 43.9248 146.774 43.8764 146.819 43.8764C146.865 43.828 146.91 43.7797 147.001 43.683C147.001 43.683 147.001 43.6347 147.046 43.6347L147.091 43.5863C147.136 43.538 147.182 43.4413 147.227 43.3929C147.272 43.3446 147.317 43.2479 147.408 43.1995C147.453 43.1512 147.544 43.0545 147.589 43.0061C147.589 43.0061 147.589 43.0061 147.589 42.9578C147.634 42.9094 147.68 42.8127 147.725 42.7644C147.77 42.716 147.77 42.6677 147.815 42.6193C147.861 42.5226 147.906 42.4743 147.997 42.3776C148.087 42.2325 148.178 42.0875 148.268 41.9425C148.313 41.8941 148.313 41.8458 148.359 41.8458C148.449 41.7007 148.54 41.5557 148.63 41.4106C148.721 41.2172 148.811 41.0722 148.902 40.8788C148.993 40.6854 149.083 40.492 149.128 40.347C149.174 40.2503 149.219 40.1536 149.264 40.0569C149.355 39.8635 149.4 39.6701 149.445 39.4767C149.762 38.5097 149.989 37.4944 150.124 36.4307C150.124 36.334 150.124 36.2373 150.17 36.0923C150.215 35.7538 150.215 35.4638 150.215 35.1253V19.3637C150.215 15.8826 152.841 13.0784 156.1 13.0784C159.405 12.885 162.076 15.6892 162.076 19.1703Z" fill="black"/>
<path fill-rule="evenodd" clip-rule="evenodd" d="M81.9827 11.8067C72.7841 13.2446 65.1953 19.7129 62.3954 28.5023C61.2282 32.1659 61.2072 32.6962 61.2823 56.5249L61.3517 78.5034L61.8417 79.4119C63.8788 83.1885 68.5584 83.9134 71.5769 80.9199C73.4118 79.1003 73.4309 78.9752 73.4309 68.6998V59.9651L81.4652 59.8797C89.2824 59.7964 89.5572 59.7788 91.6315 59.2234C98.5645 57.3675 104.057 52.8635 107.25 46.4147C114.056 32.6729 106.383 16.1372 91.4291 12.318C89.0055 11.6988 84.3011 11.4443 81.9827 11.8067ZM88.26 24.0055C90.3613 24.4967 92.1805 25.5448 93.9545 27.2869C96.3878 29.6761 97.5893 32.5362 97.5893 35.9396C97.5893 41.1375 94.0449 45.8591 88.9776 47.4117C87.7023 47.8025 86.8993 47.8433 80.5 47.8433H73.4309L73.4342 41.085C73.4378 33.6085 73.5612 32.6169 74.7882 30.2067C75.1716 29.4533 76.1275 28.1781 76.9157 27.3684C79.9182 24.2844 84.122 23.0382 88.26 24.0055Z" fill="black"/>
</svg>
