<svg width="20" height="34" viewBox="0 0 20 34" fill="none" xmlns="http://www.w3.org/2000/svg">
<path d="M0 32.6909V22.1219C0 22.0381 0.0331917 21.9543 0.0995712 21.8914L7.15786 15.1142C7.37912 14.9047 7.75527 15.0514 7.75527 15.3447L7.75527 25.3271C7.75527 25.5052 7.91016 25.6623 8.10929 25.6623H18.6525C18.9622 25.6623 19.1171 26.0185 18.8959 26.228L11.738 32.9214C11.6716 32.9842 11.5831 33.0156 11.4946 33.0156H0.342962C0.154888 33.0156 0 32.869 0 32.6909Z" fill="white"/>
<path d="M19.8635 14.2488L12.583 20.9018C12.3551 21.1104 11.9678 20.9644 11.9678 20.6724V7.07443C11.9678 6.991 12.002 6.90758 12.0703 6.84502L19.3508 0.098156C19.5786 -0.110401 19.966 0.0355854 19.966 0.327566V14.0194C19.9774 14.1028 19.9318 14.1863 19.8635 14.2488Z" fill="white"/>
</svg>
