<svg width="20" height="33" viewBox="0 0 20 33" fill="none" xmlns="http://www.w3.org/2000/svg">
<path d="M20 0.324719V10.8938C20 10.9776 19.9668 11.0614 19.9004 11.1242L12.8421 17.9014C12.6209 18.1109 12.2447 17.9643 12.2447 17.671V7.68849C12.2447 7.51042 12.0898 7.3533 11.8907 7.3533H1.34753C1.03776 7.3533 0.882872 6.99715 1.10414 6.78766L8.26199 0.0942724C8.32837 0.0314237 8.41688 0 8.50538 0H19.657C19.8451 0 20 0.146648 20 0.324719Z" fill="white"/>
<path d="M0.104289 18.7512L7.38475 12.0982C7.61262 11.8896 8 12.0356 8 12.3276V25.9256C8 26.009 7.96582 26.0924 7.89746 26.155L0.616998 32.9018C0.389127 33.1104 0.00174476 32.9644 0.00174476 32.6724V18.9806C-0.00964876 18.8972 0.0359281 18.8137 0.104289 18.7512Z" fill="white"/>
</svg>
