<svg width="31" height="29" viewBox="0 0 31 29" fill="none" xmlns="http://www.w3.org/2000/svg">
<path d="M4.93247 27.0427H25.4597C27.6316 27.0427 29.3922 25.2821 29.3922 23.1103V9.91416C29.3922 7.74232 27.6316 5.98169 25.4597 5.98169H4.93247C2.76062 5.98169 1 7.74231 1 9.91416V23.1103C1 25.2821 2.76063 27.0427 4.93247 27.0427Z" fill="white" stroke="white" stroke-width="2"/>
<path d="M20.0613 16.5129C20.0613 17.47 20.8373 18.246 21.7944 18.246C22.7515 18.246 23.5275 17.47 23.5275 16.5129C23.5275 15.5558 22.7515 14.7798 21.7944 14.7798C20.8373 14.7798 20.0613 15.5558 20.0613 16.5129Z" stroke="#A010A3" stroke-width="2" stroke-linecap="round" stroke-linejoin="round"/>
<mask id="path-3-outside-1_412_615" maskUnits="userSpaceOnUse" x="0" y="-1" width="26" height="11" fill="black">
<rect fill="white" y="-1" width="26" height="11"/>
<path d="M23.9935 6.98207V4.93407C23.9935 3.00735 22.1672 1.60418 20.3055 2.10061L4.17687 6.40157C2.89319 6.7439 2 7.90647 2 9.23503V9.91454"/>
</mask>
<path d="M20.3055 2.10061L19.7902 0.168142L19.7902 0.168144L20.3055 2.10061ZM4.17687 6.40157L3.66155 4.4691L3.66154 4.46911L4.17687 6.40157ZM25.9935 6.98207V4.93407H21.9935V6.98207H25.9935ZM25.9935 4.93407C25.9935 1.69331 22.9216 -0.666878 19.7902 0.168142L20.8208 4.03309C21.4128 3.87523 21.9935 4.32139 21.9935 4.93407H25.9935ZM19.7902 0.168144L3.66155 4.4691L4.6922 8.33404L20.8208 4.03308L19.7902 0.168144ZM3.66154 4.46911C1.50235 5.0449 0 7.00037 0 9.23503H4C4 8.81258 4.28402 8.44289 4.6922 8.33404L3.66154 4.46911ZM0 9.23503V9.91454H4V9.23503H0Z" fill="white" mask="url(#path-3-outside-1_412_615)"/>
</svg>
